# xmcd CD database file generated by Grip 3.3.1
# 
# Track frame offsets:
#       150
#       15032
#       30131
#       39730
#       56203
#       68750
#       88197
#       101316
#       110991
#       120977
#       139887
#       163178
#       182728
#       199201
# 
# Disc length: 3227 seconds
# 
# Revision: 1
# Processed by: cddbd v1.5.1PL2 Copyright (c) Steve Scherf et al.
# Submitted via: Grip 3.3.1
# 
DISCID=b90c990e
DTITLE=No Horse No Rider - Living Is Dancin' - Dying Is Nothin' At All
DYEAR=2005
DGENRE=Country
TTITLE0=Middle Of All That Trouble
TTITLE1=Rusty Cage
TTITLE2=Burn And Rob
TTITLE3=Plastic Jesus
TTITLE4=East Bound 'N' Down
TTITLE5=Country Death Song
TTITLE6=Knock 'Em Down
TTITLE7=Molly And Tenbrooks
TTITLE8=Boy Girl Canoe
TTITLE9=Ira Hayes
TTITLE10=At My Window
TTITLE11=Rex's Blues
TTITLE12=Pancho And Lefty
TTITLE13=Sin City
EXTD=
EXTT0=
EXTT1=
EXTT2=
EXTT3=
EXTT4=
EXTT5=
EXTT6=
EXTT7=
EXTT8=
EXTT9=
EXTT10=
EXTT11=
EXTT12=
EXTT13=
PLAYORDER=
